<svg width="42" height="42" viewBox="0 0 42 42" fill="none" xmlns="http://www.w3.org/2000/svg">
<rect opacity="0.1" width="42" height="42" rx="21" fill="#121ADA"/>
<rect x="4" y="4" width="34" height="34" rx="17" fill="white"/>
<path fill-rule="evenodd" clip-rule="evenodd" d="M14 16C14 15.4477 14.4477 15 15 15C15.5523 15 16 15.4477 16 16C16 16.5523 15.5523 17 15 17C14.4477 17 14 16.5523 14 16ZM15 19C14.4477 19 14 19.4477 14 20C14 20.5523 14.4477 21 15 21C15.5523 21 16 20.5523 16 20C16 19.4477 15.5523 19 15 19ZM19 15C18.4477 15 18 15.4477 18 16C18 16.5523 18.4477 17 19 17C19.5523 17 20 16.5523 20 16C20 15.4477 19.5523 15 19 15ZM18 20C18 19.4477 18.4477 19 19 19C19.5523 19 20 19.4477 20 20C20 20.5523 19.5523 21 19 21C18.4477 21 18 20.5523 18 20ZM27 19C26.4477 19 26 19.4477 26 20C26 20.5523 26.4477 21 27 21C27.5523 21 28 20.5523 28 20C28 19.4477 27.5523 19 27 19ZM26 24C26 23.4477 26.4477 23 27 23C27.5523 23 28 23.4477 28 24C28 24.5523 27.5523 25 27 25C26.4477 25 26 24.5523 26 24ZM15 23C14.4477 23 14 23.4477 14 24C14 24.5523 14.4477 25 15 25C15.5523 25 16 24.5523 16 24C16 23.4477 15.5523 23 15 23ZM18 24C18 23.4477 18.4477 23 19 23C19.5523 23 20 23.4477 20 24C20 24.5523 19.5523 25 19 25C18.4477 25 18 24.5523 18 24Z" fill="#121ADA"/>
<path fill-rule="evenodd" clip-rule="evenodd" d="M12.875 11C12.0909 11 11.3531 11.3328 10.8196 11.9018C10.2882 12.4687 10 13.2244 10 14V27C10 27.7756 10.2882 28.5313 10.8196 29.0982C11.3531 29.6672 12.0909 30 12.875 30H29.75C30.3339 30 30.9016 29.7777 31.3264 29.3699C31.7526 28.9608 32 28.397 32 27.8V17.2C32 15.9469 30.9538 15 29.75 15H24V14C24 12.4049 22.7726 11 21.125 11H12.875ZM24 17H29.75C29.9269 17 30 17.1276 30 17.2V27.8C30 27.8396 29.984 27.8862 29.9414 27.9271C29.8973 27.9694 29.8292 28 29.75 28H24V17ZM12.875 28C12.6645 28 12.4485 27.9114 12.2787 27.7303C12.1069 27.547 12 27.2853 12 27V14C12 13.7147 12.1069 13.453 12.2787 13.2697C12.4485 13.0886 12.6645 13 12.875 13H21.125C21.5484 13 22 13.3859 22 14V28H12.875Z" fill="#121ADA"/>
</svg>
